# xmcd CD database file
#
# Track frame offsets:
#	150
#	8500
#	28205
#	47667
#	68310
#	86757
#	102662
#	120032
#	134870
#	156360
#	173487
#	187122
#
# Disc length: 2872 seconds
#
# Revision: 2
# Processed by: cddbd v1.5.1PL0 Copyright (c) Steve Scherf et al.
# Submitted via: CDex 1.51
#
DISCID=980b360c
DTITLE=Kyper - Countdown To The Year 2000
DYEAR=1992
DGENRE=Hip-Hop
TTITLE0=Intro Prelude
TTITLE1=Countdown To The Year 2000
TTITLE2=Spin The Bottle
TTITLE3=Games People Play
TTITLE4=Save Your Love
TTITLE5=Dis Is My House
TTITLE6=Tabatha
TTITLE7=Weird Sex
TTITLE8=Body Hunter
TTITLE9=My Destiny
TTITLE10=Hey You, Do You Feel Good?
TTITLE11=Don't You Wanna Come?
EXTD=YEAR: 1992
EXTT0=
EXTT1=
EXTT2=
EXTT3=
EXTT4=
EXTT5=
EXTT6=
EXTT7=
EXTT8=
EXTT9=
EXTT10=
EXTT11=
PLAYORDER=
